# xmcd
#
# Track frame offsets:
#	150
#	12375
#	31715
#	50297
#	73912
#	91202
#	111775
#	131445
#	149840
#	175952
#	193802
#	209272
#	226440
#
# Disc length: 3267 seconds
#
# Revision: 0
# Processed by: cddbd v1.4PL0 Copyright (c) Steve Scherf et al.
# Submitted via: dBpowerAMP V4.0
#
DISCID=bb0cc10d
DTITLE=Mr Boogie Woogie and the Firesweep Bluesband - Three Pound Fist
DYEAR=1900
DGENRE=Blues
TTITLE0=Three Pound Fist
TTITLE1=K.O. Boogie
TTITLE2=That's a Lie
TTITLE3=Those were the days
TTITLE4=Mary Ann
TTITLE5=Old Man Blues
TTITLE6=Homemade Brew
TTITLE7=Marlon's Boogie
TTITLE8=Please Send Me Someone to Love
TTITLE9=Another Girl Gone
TTITLE10=Remmington Ride
TTITLE11=Bad Case of Love
TTITLE12=Sweet Love
EXTD=
EXTT0=
EXTT1=
EXTT2=
EXTT3=
EXTT4=
EXTT5=
EXTT6=
EXTT7=
EXTT8=
EXTT9=
EXTT10=
EXTT11=
EXTT12=
PLAYORDER=
